# xmcd
#
# Track frame offsets: 
#        150
#        17549
#        31230
#        50762
#        74760
#        91316
#        109845
#        124794
#        140646
#        158401
#
# Disc length: 2333 seconds
#
# Revision: 0
# Processed by: cddbd v1.5.2PL0 Copyright (c) Steve Scherf et al.
# Submitted via: ExactAudioCopy v0.99pb4
#
DISCID=85091b0a
DTITLE=Kathleen Montaigue - Green and Gold
DYEAR=2010
DGENRE=Country
TTITLE0=Don't Say Maybe
TTITLE1=Walk Don't Run
TTITLE2=Angel's Tears
TTITLE3=Green and Gold
TTITLE4=Smiling
TTITLE5=Searching Me For You
TTITLE6=No More
TTITLE7=Some Part Of You
TTITLE8=Broken
TTITLE9=Can't Say These Things
EXTD=
EXTT0=
EXTT1=
EXTT2=
EXTT3=
EXTT4=
EXTT5=
EXTT6=
EXTT7=
EXTT8=
EXTT9=
PLAYORDER=
